<svg xmlns="http://www.w3.org/2000/svg" xmlns:osb="http://www.openswatchbook.org/uri/2009/osb" xmlns:svg="http://www.w3.org/2000/svg" id="svg4306" width="24" height="24" enable-background="new" version="1.1"><defs id="defs4308"><linearGradient id="selected_fg_color" osb:paint="solid"><stop id="stop4188" offset="0" stop-color="#ffffffgitgitgitgitgit" stop-opacity="1"/></linearGradient><linearGradient id="selected_bg_color" osb:paint="solid"><stop id="stop4185" offset="0" stop-color="#5294e2" stop-opacity="1"/></linearGradient><linearGradient id="linearGradient3770"><stop id="stop3772" offset="0" stop-color="#000" stop-opacity=".628"/><stop id="stop3774" offset="1" stop-color="#000" stop-opacity=".498"/></linearGradient><linearGradient id="linearGradient4882"><stop id="stop4884" offset="0" stop-color="#fff" stop-opacity="1"/><stop id="stop4886" offset="1" stop-color="#fff" stop-opacity="0"/></linearGradient><linearGradient id="linearGradient3784-6"><stop id="stop3786-4" offset="0" stop-color="#fff" stop-opacity=".216"/><stop id="stop3788-6" offset="1" stop-color="#fff" stop-opacity="0"/></linearGradient><linearGradient id="linearGradient4892"><stop id="stop4894" offset="0" stop-color="#2f3a42" stop-opacity="1"/><stop id="stop4896" offset="1" stop-color="#1d242a" stop-opacity="1"/></linearGradient><linearGradient id="linearGradient4882-4"><stop id="stop4884-9" offset="0" stop-color="#728495" stop-opacity="1"/><stop id="stop4886-9" offset="1" stop-color="#617c95" stop-opacity="0"/></linearGradient></defs><metadata id="metadata4311"/><g id="layer1" transform="translate(0,-1028.3622)"><g id="titlebutton-max-hover-dark" display="inline" transform="translate(-509,1218)"><g id="g4891-5-8" display="inline" opacity="1" transform="translate(-781,-432.63782)"><ellipse id="path4068-7-5-9-6-7-2-4-6-6" cx="1302" cy="255" fill="#5f697f" fill-opacity="1" stroke="none" stroke-dasharray="none" stroke-dashoffset="0" stroke-linecap="butt" stroke-linejoin="miter" stroke-miterlimit="4" stroke-opacity="1" stroke-width="0" display="inline" opacity=".45" rx="6" ry="6"/><path id="path4068-7-5-9-6-7-2-5-78-2-6" fill="#15171c" fill-opacity="1" stroke="none" stroke-dasharray="none" stroke-dashoffset="0" stroke-linecap="butt" stroke-linejoin="miter" stroke-miterlimit="4" stroke-opacity="1" stroke-width="0" d="m 1302,248 a 7,7 0 0 0 -7,7 7,7 0 0 0 7,7 7,7 0 0 0 7,-7 7,7 0 0 0 -7,-7 z m 0,1 a 6,6 0 0 1 6,6 6,6 0 0 1 -6,6 6,6 0 0 1 -6,-6 6,6 0 0 1 6,-6 z" display="inline" opacity=".37"/><g id="g4806-9-0-6" fill="#c0e3ff" fill-opacity="1" transform="translate(1294,247)"><g id="layer12-3-0-0-6" fill="#c0e3ff" fill-opacity="1" display="inline" transform="translate(-81.0002,-967)"><path id="path4293-6-7-1" fill="#c4c7cc" fill-opacity="1" fill-rule="evenodd" stroke="none" d="m 87.799705,972 3.381737,0 c 0.450297,0 0.816227,0.36847 0.818758,0.8188 l 0,3.3817 z m 2.407413,6.00692 -3.395078,0 c -0.450346,0 -0.818758,-0.36842 -0.818758,-0.81875 l 0,-3.39509 4.213836,4.21384" opacity="1"/></g></g></g><rect id="rect17883-0-1-5" width="16" height="16" x="513" y="-185.638" fill="none" fill-opacity="1" stroke="none" stroke-dasharray="none" stroke-dashoffset="0" stroke-linecap="butt" stroke-linejoin="miter" stroke-miterlimit="4" stroke-opacity="0" stroke-width="1" display="inline" opacity="1"/></g><g id="titlebutton-max-active-dark" display="inline" transform="translate(-408.00001,1218)"><g id="g4891-4-5-5" display="inline" opacity="1" transform="translate(-882,-432.63782)"><g id="g4490-2-9-1-2-4-8" display="inline" opacity="1" transform="translate(-132,0)"><g id="g4092-0-6-3-6-8-3-7" display="inline" transform="translate(58,0)"><circle id="path4068-7-6-5-1-6-6-0" cx="1376" cy="255" r="7" fill="#2eb398" fill-opacity=".953" stroke="none" stroke-dasharray="none" stroke-dashoffset="0" stroke-linecap="butt" stroke-linejoin="miter" stroke-miterlimit="4" stroke-opacity="1" stroke-width="0"/></g></g><g id="g4806-5-2-2-9" fill="#c0e3ff" fill-opacity="1" transform="translate(1294,247)"><g id="layer12-3-7-2-3-1" fill="#c0e3ff" fill-opacity="1" display="inline" transform="translate(-81.0002,-967)"><path id="path4293-4-9-0-2" fill="#000" fill-opacity="1" fill-rule="evenodd" stroke="none" d="m 87.799705,972 3.381737,0 c 0.450297,0 0.816227,0.36847 0.818758,0.8188 l 0,3.3817 z m 2.407413,6.00692 -3.395078,0 c -0.450346,0 -0.818758,-0.36842 -0.818758,-0.81875 l 0,-3.39509 4.213836,4.21384" opacity=".25"/></g></g></g><rect id="rect17883-79-3-0" width="16" height="16" x="412" y="-185.638" fill="none" fill-opacity="1" stroke="none" stroke-dasharray="none" stroke-dashoffset="0" stroke-linecap="butt" stroke-linejoin="miter" stroke-miterlimit="4" stroke-opacity="0" stroke-width="1" display="inline" opacity="1"/></g></g></svg>