<svg xmlns="http://www.w3.org/2000/svg" xmlns:svg="http://www.w3.org/2000/svg" id="svg2" width="200" height="350" version="1.1" viewBox="0 0 200 350"><metadata id="metadata7"/><g id="layer1" display="inline" transform="translate(0,50)"><rect id="rect4153" width="100" height="350" x="0" y="-50" fill="#f5f5f5" fill-opacity="0" stroke="none"/><rect id="rect4155" width="100" height="350" x="100" y="-50" fill="#555" fill-opacity="0" stroke="none"/></g><g id="layer2" transform="translate(0,50)"><circle id="slider" cx="25" cy="-25" r="12" fill="#0caaf0" fill-opacity="1" stroke="none"/><circle id="slider-dark" cx="125" cy="-25" r="12" fill="#fff" fill-opacity="1" stroke="none"/><g id="slider-horz-scale-has-marks-above" transform="translate(0,-50)"><path id="circle4252" fill="#0caaf0" fill-opacity="1" stroke="none" d="m 16.514719,66.514719 a 12,12 0 0 0 0,16.970562 12,12 0 0 0 16.970562,0 12,12 0 0 0 0,-16.970562 L 25,58.029437 16.514719,66.514719 Z"/><rect id="rect4295" width="24" height="30" x="13" y="57" fill="none" fill-opacity="1" fill-rule="nonzero" stroke="none" stroke-dasharray="none" stroke-dashoffset="0" stroke-linecap="butt" stroke-linejoin="miter" stroke-miterlimit="4" stroke-opacity="1" stroke-width="1" clip-rule="nonzero" color="#000" color-interpolation="sRGB" color-interpolation-filters="linearRGB" color-rendering="auto" display="inline" enable-background="accumulate" image-rendering="auto" opacity="1" overflow="visible" shape-rendering="auto" text-rendering="auto" visibility="visible" style="isolation:auto;mix-blend-mode:normal;solid-color:#000;solid-opacity:1"/></g><g id="slider-horz-scale-has-marks-above-insensitive" transform="translate(0,-50)"><path id="path4271" fill="#f5f5f5" fill-opacity="1" fill-rule="nonzero" stroke="none" stroke-dasharray="none" stroke-dashoffset="0" stroke-linecap="butt" stroke-linejoin="miter" stroke-miterlimit="4" stroke-opacity="1" stroke-width="1" d="m 66.514719,66.514719 a 12,12 0 0 0 0,16.970562 12,12 0 0 0 16.970562,0 12,12 0 0 0 0,-16.970562 L 75,58.029437 66.514719,66.514719 Z" clip-rule="nonzero" color="#000" color-interpolation="sRGB" color-interpolation-filters="linearRGB" color-rendering="auto" display="inline" enable-background="accumulate" image-rendering="auto" opacity="1" overflow="visible" shape-rendering="auto" text-rendering="auto" visibility="visible" style="isolation:auto;mix-blend-mode:normal;solid-color:#000;solid-opacity:1"/><path id="path4287" fill="#000" fill-opacity=".096" stroke="none" d="m 66.514719,66.514719 a 12,12 0 0 0 0,16.970562 12,12 0 0 0 16.970562,0 12,12 0 0 0 0,-16.970562 L 75,58.029437 66.514719,66.514719 Z m 4.24264,4.24264 L 75,66.514719 l 4.242641,4.24264 a 6,6 0 0 1 0,8.485282 6,6 0 0 1 -8.485282,0 6,6 0 0 1 0,-8.485282 z"/><rect id="rect4297" width="24" height="30" x="63" y="57" fill="none" fill-opacity="1" fill-rule="nonzero" stroke="none" stroke-dasharray="none" stroke-dashoffset="0" stroke-linecap="butt" stroke-linejoin="miter" stroke-miterlimit="4" stroke-opacity="1" stroke-width="1" clip-rule="nonzero" color="#000" color-interpolation="sRGB" color-interpolation-filters="linearRGB" color-rendering="auto" display="inline" enable-background="accumulate" image-rendering="auto" opacity="1" overflow="visible" shape-rendering="auto" text-rendering="auto" visibility="visible" style="isolation:auto;mix-blend-mode:normal;solid-color:#000;solid-opacity:1"/></g><g id="slider-insensitive" transform="translate(0,-50)"><circle id="circle4246" cx="75" cy="25" r="12" fill="#f5f5f5" fill-opacity="1" stroke="none"/><path id="circle4313" fill="#000" fill-opacity=".096" stroke="none" d="M 75 13 A 12 12 0 0 0 63 25 A 12 12 0 0 0 75 37 A 12 12 0 0 0 87 25 A 12 12 0 0 0 75 13 z M 75 19 A 6 6 0 0 1 81 25 A 6 6 0 0 1 75 31 A 6 6 0 0 1 69 25 A 6 6 0 0 1 75 19 z"/></g><g id="slider-insensitive-dark" transform="translate(0,-50)"><circle id="circle4250" cx="175" cy="25" r="12" fill="#0caaf0" fill-opacity="1" stroke="none"/><path id="circle4315" fill="#fff" fill-opacity=".12" stroke="none" d="M 175 13 A 12 12 0 0 0 163 25 A 12 12 0 0 0 175 37 A 12 12 0 0 0 187 25 A 12 12 0 0 0 175 13 z M 175 19 A 6 6 0 0 1 181 25 A 6 6 0 0 1 175 31 A 6 6 0 0 1 169 25 A 6 6 0 0 1 175 19 z"/></g><g id="slider-horz-scale-has-marks-above-dark" transform="translate(100,-50)"><path id="path4350" fill="#fff" fill-opacity="1" stroke="none" d="m 16.514719,66.514719 a 12,12 0 0 0 0,16.970562 12,12 0 0 0 16.970562,0 12,12 0 0 0 0,-16.970562 L 25,58.029437 16.514719,66.514719 Z"/><rect id="rect4352" width="24" height="30" x="13" y="57" fill="none" fill-opacity="1" fill-rule="nonzero" stroke="none" stroke-dasharray="none" stroke-dashoffset="0" stroke-linecap="butt" stroke-linejoin="miter" stroke-miterlimit="4" stroke-opacity="1" stroke-width="1" clip-rule="nonzero" color="#000" color-interpolation="sRGB" color-interpolation-filters="linearRGB" color-rendering="auto" display="inline" enable-background="accumulate" image-rendering="auto" opacity="1" overflow="visible" shape-rendering="auto" text-rendering="auto" visibility="visible" style="isolation:auto;mix-blend-mode:normal;solid-color:#000;solid-opacity:1"/></g><g id="slider-horz-scale-has-marks-above-insensitive-dark" transform="translate(100,-50)"><path id="path4356" fill="#0caaf0" fill-opacity="1" fill-rule="nonzero" stroke="none" stroke-dasharray="none" stroke-dashoffset="0" stroke-linecap="butt" stroke-linejoin="miter" stroke-miterlimit="4" stroke-opacity="1" stroke-width="1" d="m 66.514719,66.514719 a 12,12 0 0 0 0,16.970562 12,12 0 0 0 16.970562,0 12,12 0 0 0 0,-16.970562 L 75,58.029437 66.514719,66.514719 Z" clip-rule="nonzero" color="#000" color-interpolation="sRGB" color-interpolation-filters="linearRGB" color-rendering="auto" display="inline" enable-background="accumulate" image-rendering="auto" opacity="1" overflow="visible" shape-rendering="auto" text-rendering="auto" visibility="visible" style="isolation:auto;mix-blend-mode:normal;solid-color:#000;solid-opacity:1"/><path id="path4358" fill="#fff" fill-opacity=".12" fill-rule="nonzero" stroke="none" stroke-dasharray="none" stroke-dashoffset="0" stroke-linecap="butt" stroke-linejoin="miter" stroke-miterlimit="4" stroke-opacity="1" stroke-width="1" d="m 66.514719,66.514719 a 12,12 0 0 0 0,16.970562 12,12 0 0 0 16.970562,0 12,12 0 0 0 0,-16.970562 L 75,58.029437 66.514719,66.514719 Z m 4.24264,4.24264 L 75,66.514719 l 4.242641,4.24264 a 6,6 0 0 1 0,8.485282 6,6 0 0 1 -8.485282,0 6,6 0 0 1 0,-8.485282 z" clip-rule="nonzero" color="#000" color-interpolation="sRGB" color-interpolation-filters="linearRGB" color-rendering="auto" display="inline" enable-background="accumulate" image-rendering="auto" opacity="1" overflow="visible" shape-rendering="auto" text-rendering="auto" visibility="visible" style="isolation:auto;mix-blend-mode:normal;solid-color:#000;solid-opacity:1"/><rect id="rect4360" width="24" height="30" x="63" y="57" fill="none" fill-opacity="1" fill-rule="nonzero" stroke="none" stroke-dasharray="none" stroke-dashoffset="0" stroke-linecap="butt" stroke-linejoin="miter" stroke-miterlimit="4" stroke-opacity="1" stroke-width="1" clip-rule="nonzero" color="#000" color-interpolation="sRGB" color-interpolation-filters="linearRGB" color-rendering="auto" display="inline" enable-background="accumulate" image-rendering="auto" opacity="1" overflow="visible" shape-rendering="auto" text-rendering="auto" visibility="visible" style="isolation:auto;mix-blend-mode:normal;solid-color:#000;solid-opacity:1"/></g><g id="slider-horz-scale-has-marks-below" transform="matrix(-1,0,0,-1,50,150)"><path id="path4364" fill="#0caaf0" fill-opacity="1" stroke="none" d="m 16.514719,66.514719 a 12,12 0 0 0 0,16.970562 12,12 0 0 0 16.970562,0 12,12 0 0 0 0,-16.970562 L 25,58.029437 16.514719,66.514719 Z"/><rect id="rect4366" width="24" height="30" x="13" y="57" fill="none" fill-opacity="1" fill-rule="nonzero" stroke="none" stroke-dasharray="none" stroke-dashoffset="0" stroke-linecap="butt" stroke-linejoin="miter" stroke-miterlimit="4" stroke-opacity="1" stroke-width="1" clip-rule="nonzero" color="#000" color-interpolation="sRGB" color-interpolation-filters="linearRGB" color-rendering="auto" display="inline" enable-background="accumulate" image-rendering="auto" opacity="1" overflow="visible" shape-rendering="auto" text-rendering="auto" visibility="visible" style="isolation:auto;mix-blend-mode:normal;solid-color:#000;solid-opacity:1"/></g><g id="slider-horz-scale-has-marks-below-insensitive" transform="matrix(-1,0,0,-1,150,150)"><path id="path4370" fill="#f5f5f5" fill-opacity="1" fill-rule="nonzero" stroke="none" stroke-dasharray="none" stroke-dashoffset="0" stroke-linecap="butt" stroke-linejoin="miter" stroke-miterlimit="4" stroke-opacity="1" stroke-width="1" d="m 66.514719,66.514719 a 12,12 0 0 0 0,16.970562 12,12 0 0 0 16.970562,0 12,12 0 0 0 0,-16.970562 L 75,58.029437 66.514719,66.514719 Z" clip-rule="nonzero" color="#000" color-interpolation="sRGB" color-interpolation-filters="linearRGB" color-rendering="auto" display="inline" enable-background="accumulate" image-rendering="auto" opacity="1" overflow="visible" shape-rendering="auto" text-rendering="auto" visibility="visible" style="isolation:auto;mix-blend-mode:normal;solid-color:#000;solid-opacity:1"/><path id="path4372" fill="#000" fill-opacity=".096" stroke="none" d="m 66.514719,66.514719 a 12,12 0 0 0 0,16.970562 12,12 0 0 0 16.970562,0 12,12 0 0 0 0,-16.970562 L 75,58.029437 66.514719,66.514719 Z m 4.24264,4.24264 L 75,66.514719 l 4.242641,4.24264 a 6,6 0 0 1 0,8.485282 6,6 0 0 1 -8.485282,0 6,6 0 0 1 0,-8.485282 z"/><rect id="rect4374" width="24" height="30" x="63" y="57" fill="none" fill-opacity="1" fill-rule="nonzero" stroke="none" stroke-dasharray="none" stroke-dashoffset="0" stroke-linecap="butt" stroke-linejoin="miter" stroke-miterlimit="4" stroke-opacity="1" stroke-width="1" clip-rule="nonzero" color="#000" color-interpolation="sRGB" color-interpolation-filters="linearRGB" color-rendering="auto" display="inline" enable-background="accumulate" image-rendering="auto" opacity="1" overflow="visible" shape-rendering="auto" text-rendering="auto" visibility="visible" style="isolation:auto;mix-blend-mode:normal;solid-color:#000;solid-opacity:1"/></g><g id="slider-horz-scale-has-marks-below-dark" transform="matrix(-1,0,0,-1,150,150)"><path id="path4378" fill="#fff" fill-opacity="1" stroke="none" d="m 16.514719,66.514719 a 12,12 0 0 0 0,16.970562 12,12 0 0 0 16.970562,0 12,12 0 0 0 0,-16.970562 L 25,58.029437 16.514719,66.514719 Z"/><rect id="rect4380" width="24" height="30" x="13" y="57" fill="none" fill-opacity="1" fill-rule="nonzero" stroke="none" stroke-dasharray="none" stroke-dashoffset="0" stroke-linecap="butt" stroke-linejoin="miter" stroke-miterlimit="4" stroke-opacity="1" stroke-width="1" clip-rule="nonzero" color="#000" color-interpolation="sRGB" color-interpolation-filters="linearRGB" color-rendering="auto" display="inline" enable-background="accumulate" image-rendering="auto" opacity="1" overflow="visible" shape-rendering="auto" text-rendering="auto" visibility="visible" style="isolation:auto;mix-blend-mode:normal;solid-color:#000;solid-opacity:1"/></g><g id="slider-horz-scale-has-marks-below-insensitive-dark" transform="matrix(-1,0,0,-1,250,150)"><path id="path4384" fill="#0caaf0" fill-opacity="1" fill-rule="nonzero" stroke="none" stroke-dasharray="none" stroke-dashoffset="0" stroke-linecap="butt" stroke-linejoin="miter" stroke-miterlimit="4" stroke-opacity="1" stroke-width="1" d="m 66.514719,66.514719 a 12,12 0 0 0 0,16.970562 12,12 0 0 0 16.970562,0 12,12 0 0 0 0,-16.970562 L 75,58.029437 66.514719,66.514719 Z" clip-rule="nonzero" color="#000" color-interpolation="sRGB" color-interpolation-filters="linearRGB" color-rendering="auto" display="inline" enable-background="accumulate" image-rendering="auto" opacity="1" overflow="visible" shape-rendering="auto" text-rendering="auto" visibility="visible" style="isolation:auto;mix-blend-mode:normal;solid-color:#000;solid-opacity:1"/><path id="path4386" fill="#fff" fill-opacity=".12" fill-rule="nonzero" stroke="none" stroke-dasharray="none" stroke-dashoffset="0" stroke-linecap="butt" stroke-linejoin="miter" stroke-miterlimit="4" stroke-opacity="1" stroke-width="1" d="m 66.514719,66.514719 a 12,12 0 0 0 0,16.970562 12,12 0 0 0 16.970562,0 12,12 0 0 0 0,-16.970562 L 75,58.029437 66.514719,66.514719 Z m 4.24264,4.24264 L 75,66.514719 l 4.242641,4.24264 a 6,6 0 0 1 0,8.485282 6,6 0 0 1 -8.485282,0 6,6 0 0 1 0,-8.485282 z" clip-rule="nonzero" color="#000" color-interpolation="sRGB" color-interpolation-filters="linearRGB" color-rendering="auto" display="inline" enable-background="accumulate" image-rendering="auto" opacity="1" overflow="visible" shape-rendering="auto" text-rendering="auto" visibility="visible" style="isolation:auto;mix-blend-mode:normal;solid-color:#000;solid-opacity:1"/><rect id="rect4388" width="24" height="30" x="63" y="57" fill="none" fill-opacity="1" fill-rule="nonzero" stroke="none" stroke-dasharray="none" stroke-dashoffset="0" stroke-linecap="butt" stroke-linejoin="miter" stroke-miterlimit="4" stroke-opacity="1" stroke-width="1" clip-rule="nonzero" color="#000" color-interpolation="sRGB" color-interpolation-filters="linearRGB" color-rendering="auto" display="inline" enable-background="accumulate" image-rendering="auto" opacity="1" overflow="visible" shape-rendering="auto" text-rendering="auto" visibility="visible" style="isolation:auto;mix-blend-mode:normal;solid-color:#000;solid-opacity:1"/></g><g id="slider-vert-scale-has-marks-above" transform="matrix(0,-1,1,0,-50,150)"><path id="path4392" fill="#0caaf0" fill-opacity="1" stroke="none" d="m 16.514719,66.514719 a 12,12 0 0 0 0,16.970562 12,12 0 0 0 16.970562,0 12,12 0 0 0 0,-16.970562 L 25,58.029437 16.514719,66.514719 Z"/><rect id="rect4394" width="24" height="30" x="13" y="57" fill="none" fill-opacity="1" fill-rule="nonzero" stroke="none" stroke-dasharray="none" stroke-dashoffset="0" stroke-linecap="butt" stroke-linejoin="miter" stroke-miterlimit="4" stroke-opacity="1" stroke-width="1" clip-rule="nonzero" color="#000" color-interpolation="sRGB" color-interpolation-filters="linearRGB" color-rendering="auto" display="inline" enable-background="accumulate" image-rendering="auto" opacity="1" overflow="visible" shape-rendering="auto" text-rendering="auto" visibility="visible" style="isolation:auto;mix-blend-mode:normal;solid-color:#000;solid-opacity:1"/></g><g id="slider-vert-scale-has-marks-above-insensitive" transform="matrix(0,-1,1,0,0,200)"><path id="path4398" fill="#f5f5f5" fill-opacity="1" fill-rule="nonzero" stroke="none" stroke-dasharray="none" stroke-dashoffset="0" stroke-linecap="butt" stroke-linejoin="miter" stroke-miterlimit="4" stroke-opacity="1" stroke-width="1" d="m 66.514719,66.514719 a 12,12 0 0 0 0,16.970562 12,12 0 0 0 16.970562,0 12,12 0 0 0 0,-16.970562 L 75,58.029437 66.514719,66.514719 Z" clip-rule="nonzero" color="#000" color-interpolation="sRGB" color-interpolation-filters="linearRGB" color-rendering="auto" display="inline" enable-background="accumulate" image-rendering="auto" opacity="1" overflow="visible" shape-rendering="auto" text-rendering="auto" visibility="visible" style="isolation:auto;mix-blend-mode:normal;solid-color:#000;solid-opacity:1"/><path id="path4400" fill="#000" fill-opacity=".096" stroke="none" d="m 66.514719,66.514719 a 12,12 0 0 0 0,16.970562 12,12 0 0 0 16.970562,0 12,12 0 0 0 0,-16.970562 L 75,58.029437 66.514719,66.514719 Z m 4.24264,4.24264 L 75,66.514719 l 4.242641,4.24264 a 6,6 0 0 1 0,8.485282 6,6 0 0 1 -8.485282,0 6,6 0 0 1 0,-8.485282 z"/><rect id="rect4402" width="24" height="30" x="63" y="57" fill="none" fill-opacity="1" fill-rule="nonzero" stroke="none" stroke-dasharray="none" stroke-dashoffset="0" stroke-linecap="butt" stroke-linejoin="miter" stroke-miterlimit="4" stroke-opacity="1" stroke-width="1" clip-rule="nonzero" color="#000" color-interpolation="sRGB" color-interpolation-filters="linearRGB" color-rendering="auto" display="inline" enable-background="accumulate" image-rendering="auto" opacity="1" overflow="visible" shape-rendering="auto" text-rendering="auto" visibility="visible" style="isolation:auto;mix-blend-mode:normal;solid-color:#000;solid-opacity:1"/></g><g id="slider-vert-scale-has-marks-above-dark" transform="matrix(0,-1,1,0,50,150)"><path id="path4406" fill="#fff" fill-opacity="1" stroke="none" d="m 16.514719,66.514719 a 12,12 0 0 0 0,16.970562 12,12 0 0 0 16.970562,0 12,12 0 0 0 0,-16.970562 L 25,58.029437 16.514719,66.514719 Z"/><rect id="rect4408" width="24" height="30" x="13" y="57" fill="none" fill-opacity="1" fill-rule="nonzero" stroke="none" stroke-dasharray="none" stroke-dashoffset="0" stroke-linecap="butt" stroke-linejoin="miter" stroke-miterlimit="4" stroke-opacity="1" stroke-width="1" clip-rule="nonzero" color="#000" color-interpolation="sRGB" color-interpolation-filters="linearRGB" color-rendering="auto" display="inline" enable-background="accumulate" image-rendering="auto" opacity="1" overflow="visible" shape-rendering="auto" text-rendering="auto" visibility="visible" style="isolation:auto;mix-blend-mode:normal;solid-color:#000;solid-opacity:1"/></g><g id="slider-vert-scale-has-marks-above-insensitive-dark" transform="matrix(0,-1,1,0,100,200)"><path id="path4412" fill="#0caaf0" fill-opacity="1" fill-rule="nonzero" stroke="none" stroke-dasharray="none" stroke-dashoffset="0" stroke-linecap="butt" stroke-linejoin="miter" stroke-miterlimit="4" stroke-opacity="1" stroke-width="1" d="m 66.514719,66.514719 a 12,12 0 0 0 0,16.970562 12,12 0 0 0 16.970562,0 12,12 0 0 0 0,-16.970562 L 75,58.029437 66.514719,66.514719 Z" clip-rule="nonzero" color="#000" color-interpolation="sRGB" color-interpolation-filters="linearRGB" color-rendering="auto" display="inline" enable-background="accumulate" image-rendering="auto" opacity="1" overflow="visible" shape-rendering="auto" text-rendering="auto" visibility="visible" style="isolation:auto;mix-blend-mode:normal;solid-color:#000;solid-opacity:1"/><path id="path4414" fill="#fff" fill-opacity=".12" fill-rule="nonzero" stroke="none" stroke-dasharray="none" stroke-dashoffset="0" stroke-linecap="butt" stroke-linejoin="miter" stroke-miterlimit="4" stroke-opacity="1" stroke-width="1" d="m 66.514719,66.514719 a 12,12 0 0 0 0,16.970562 12,12 0 0 0 16.970562,0 12,12 0 0 0 0,-16.970562 L 75,58.029437 66.514719,66.514719 Z m 4.24264,4.24264 L 75,66.514719 l 4.242641,4.24264 a 6,6 0 0 1 0,8.485282 6,6 0 0 1 -8.485282,0 6,6 0 0 1 0,-8.485282 z" clip-rule="nonzero" color="#000" color-interpolation="sRGB" color-interpolation-filters="linearRGB" color-rendering="auto" display="inline" enable-background="accumulate" image-rendering="auto" opacity="1" overflow="visible" shape-rendering="auto" text-rendering="auto" visibility="visible" style="isolation:auto;mix-blend-mode:normal;solid-color:#000;solid-opacity:1"/><rect id="rect4416" width="24" height="30" x="63" y="57" fill="none" fill-opacity="1" fill-rule="nonzero" stroke="none" stroke-dasharray="none" stroke-dashoffset="0" stroke-linecap="butt" stroke-linejoin="miter" stroke-miterlimit="4" stroke-opacity="1" stroke-width="1" clip-rule="nonzero" color="#000" color-interpolation="sRGB" color-interpolation-filters="linearRGB" color-rendering="auto" display="inline" enable-background="accumulate" image-rendering="auto" opacity="1" overflow="visible" shape-rendering="auto" text-rendering="auto" visibility="visible" style="isolation:auto;mix-blend-mode:normal;solid-color:#000;solid-opacity:1"/></g><g id="slider-vert-scale-has-marks-below" transform="matrix(0,1,-1,0,100,150)"><path id="path4420" fill="#0caaf0" fill-opacity="1" stroke="none" d="m 16.514719,66.514719 a 12,12 0 0 0 0,16.970562 12,12 0 0 0 16.970562,0 12,12 0 0 0 0,-16.970562 L 25,58.029437 16.514719,66.514719 Z"/><rect id="rect4422" width="24" height="30" x="13" y="57" fill="none" fill-opacity="1" fill-rule="nonzero" stroke="none" stroke-dasharray="none" stroke-dashoffset="0" stroke-linecap="butt" stroke-linejoin="miter" stroke-miterlimit="4" stroke-opacity="1" stroke-width="1" clip-rule="nonzero" color="#000" color-interpolation="sRGB" color-interpolation-filters="linearRGB" color-rendering="auto" display="inline" enable-background="accumulate" image-rendering="auto" opacity="1" overflow="visible" shape-rendering="auto" text-rendering="auto" visibility="visible" style="isolation:auto;mix-blend-mode:normal;solid-color:#000;solid-opacity:1"/></g><g id="slider-vert-scale-has-marks-below-insensitive" transform="matrix(0,1,-1,0,150,100)"><path id="path4426" fill="#f5f5f5" fill-opacity="1" fill-rule="nonzero" stroke="none" stroke-dasharray="none" stroke-dashoffset="0" stroke-linecap="butt" stroke-linejoin="miter" stroke-miterlimit="4" stroke-opacity="1" stroke-width="1" d="m 66.514719,66.514719 a 12,12 0 0 0 0,16.970562 12,12 0 0 0 16.970562,0 12,12 0 0 0 0,-16.970562 L 75,58.029437 66.514719,66.514719 Z" clip-rule="nonzero" color="#000" color-interpolation="sRGB" color-interpolation-filters="linearRGB" color-rendering="auto" display="inline" enable-background="accumulate" image-rendering="auto" opacity="1" overflow="visible" shape-rendering="auto" text-rendering="auto" visibility="visible" style="isolation:auto;mix-blend-mode:normal;solid-color:#000;solid-opacity:1"/><path id="path4428" fill="#000" fill-opacity=".096" stroke="none" d="m 66.514719,66.514719 a 12,12 0 0 0 0,16.970562 12,12 0 0 0 16.970562,0 12,12 0 0 0 0,-16.970562 L 75,58.029437 66.514719,66.514719 Z m 4.24264,4.24264 L 75,66.514719 l 4.242641,4.24264 a 6,6 0 0 1 0,8.485282 6,6 0 0 1 -8.485282,0 6,6 0 0 1 0,-8.485282 z"/><rect id="rect4430" width="24" height="30" x="63" y="57" fill="none" fill-opacity="1" fill-rule="nonzero" stroke="none" stroke-dasharray="none" stroke-dashoffset="0" stroke-linecap="butt" stroke-linejoin="miter" stroke-miterlimit="4" stroke-opacity="1" stroke-width="1" clip-rule="nonzero" color="#000" color-interpolation="sRGB" color-interpolation-filters="linearRGB" color-rendering="auto" display="inline" enable-background="accumulate" image-rendering="auto" opacity="1" overflow="visible" shape-rendering="auto" text-rendering="auto" visibility="visible" style="isolation:auto;mix-blend-mode:normal;solid-color:#000;solid-opacity:1"/></g><g id="slider-vert-scale-has-marks-below-dark" transform="matrix(0,1,-1,0,200,150)"><path id="path4434" fill="#fff" fill-opacity="1" stroke="none" d="m 16.514719,66.514719 a 12,12 0 0 0 0,16.970562 12,12 0 0 0 16.970562,0 12,12 0 0 0 0,-16.970562 L 25,58.029437 16.514719,66.514719 Z"/><rect id="rect4436" width="24" height="30" x="13" y="57" fill="none" fill-opacity="1" fill-rule="nonzero" stroke="none" stroke-dasharray="none" stroke-dashoffset="0" stroke-linecap="butt" stroke-linejoin="miter" stroke-miterlimit="4" stroke-opacity="1" stroke-width="1" clip-rule="nonzero" color="#000" color-interpolation="sRGB" color-interpolation-filters="linearRGB" color-rendering="auto" display="inline" enable-background="accumulate" image-rendering="auto" opacity="1" overflow="visible" shape-rendering="auto" text-rendering="auto" visibility="visible" style="isolation:auto;mix-blend-mode:normal;solid-color:#000;solid-opacity:1"/></g><g id="slider-vert-scale-has-marks-below-insensitive-dark" transform="matrix(0,1,-1,0,250,100)"><path id="path4440" fill="#0caaf0" fill-opacity="1" fill-rule="nonzero" stroke="none" stroke-dasharray="none" stroke-dashoffset="0" stroke-linecap="butt" stroke-linejoin="miter" stroke-miterlimit="4" stroke-opacity="1" stroke-width="1" d="m 66.514719,66.514719 a 12,12 0 0 0 0,16.970562 12,12 0 0 0 16.970562,0 12,12 0 0 0 0,-16.970562 L 75,58.029437 66.514719,66.514719 Z" clip-rule="nonzero" color="#000" color-interpolation="sRGB" color-interpolation-filters="linearRGB" color-rendering="auto" display="inline" enable-background="accumulate" image-rendering="auto" opacity="1" overflow="visible" shape-rendering="auto" text-rendering="auto" visibility="visible" style="isolation:auto;mix-blend-mode:normal;solid-color:#000;solid-opacity:1"/><path id="path4442" fill="#fff" fill-opacity=".12" fill-rule="nonzero" stroke="none" stroke-dasharray="none" stroke-dashoffset="0" stroke-linecap="butt" stroke-linejoin="miter" stroke-miterlimit="4" stroke-opacity="1" stroke-width="1" d="m 66.514719,66.514719 a 12,12 0 0 0 0,16.970562 12,12 0 0 0 16.970562,0 12,12 0 0 0 0,-16.970562 L 75,58.029437 66.514719,66.514719 Z m 4.24264,4.24264 L 75,66.514719 l 4.242641,4.24264 a 6,6 0 0 1 0,8.485282 6,6 0 0 1 -8.485282,0 6,6 0 0 1 0,-8.485282 z" clip-rule="nonzero" color="#000" color-interpolation="sRGB" color-interpolation-filters="linearRGB" color-rendering="auto" display="inline" enable-background="accumulate" image-rendering="auto" opacity="1" overflow="visible" shape-rendering="auto" text-rendering="auto" visibility="visible" style="isolation:auto;mix-blend-mode:normal;solid-color:#000;solid-opacity:1"/><rect id="rect4444" width="24" height="30" x="63" y="57" fill="none" fill-opacity="1" fill-rule="nonzero" stroke="none" stroke-dasharray="none" stroke-dashoffset="0" stroke-linecap="butt" stroke-linejoin="miter" stroke-miterlimit="4" stroke-opacity="1" stroke-width="1" clip-rule="nonzero" color="#000" color-interpolation="sRGB" color-interpolation-filters="linearRGB" color-rendering="auto" display="inline" enable-background="accumulate" image-rendering="auto" opacity="1" overflow="visible" shape-rendering="auto" text-rendering="auto" visibility="visible" style="isolation:auto;mix-blend-mode:normal;solid-color:#000;solid-opacity:1"/></g><g id="checkbox-selectionmode"><path id="rect4393" fill="#f5f5f5" fill-opacity="0" fill-rule="nonzero" stroke="none" stroke-dasharray="none" stroke-dashoffset="0" stroke-linecap="butt" stroke-linejoin="miter" stroke-miterlimit="4" stroke-opacity="1" stroke-width=".5" d="m 7,255 c -1.108,0 -2,0.892 -2,2 0,13.55272 0,26.10215 0,38 13.832775,0 28.119439,0 40,0 0,-13.31618 0,-24.4159 0,-38 0,-1.108 -0.892,-2 -2,-2 z" clip-rule="nonzero" color="#000" color-interpolation="sRGB" color-interpolation-filters="linearRGB" color-rendering="auto" display="inline" enable-background="accumulate" image-rendering="auto" opacity="1" overflow="visible" shape-rendering="auto" text-rendering="auto" transform="translate(0,-50)" visibility="visible" style="isolation:auto;mix-blend-mode:normal;solid-color:#000;solid-opacity:1;filter-blend-mode:normal;filter-gaussianBlur-deviation:0"/><path id="rect4506" fill="#000" fill-opacity=".6" fill-rule="nonzero" stroke="none" stroke-dasharray="none" stroke-dashoffset="0" stroke-linecap="butt" stroke-linejoin="miter" stroke-miterlimit="4" stroke-opacity="1" stroke-width="1" d="m 11,207 c -2.216,0 -4,1.784 -4,4 l 0,28 c 0,2.216 1.784,4 4,4 l 28,0 c 2.216,0 4,-1.784 4,-4 l 0,-28 c 0,-2.216 -1.784,-4 -4,-4 l -28,0 z m 0,4 28,0 0,28 -28,0 0,-28 z" clip-rule="nonzero" color="#000" color-interpolation="sRGB" color-interpolation-filters="linearRGB" color-rendering="auto" display="inline" enable-background="accumulate" image-rendering="auto" opacity="1" overflow="visible" shape-rendering="auto" text-rendering="auto" visibility="visible" style="isolation:auto;mix-blend-mode:normal;solid-color:#000;solid-opacity:1"/></g><g id="checkbox-checked-selectionmode"><path id="path4410" fill="#f5f5f5" fill-opacity="0" fill-rule="nonzero" stroke="none" stroke-dasharray="none" stroke-dashoffset="0" stroke-linecap="butt" stroke-linejoin="miter" stroke-miterlimit="4" stroke-opacity="1" stroke-width=".5" d="m 57,205 c -1.108,0 -2,0.892 -2,2 0,13.55272 0,26.10215 0,38 13.832775,0 28.119439,0 40,0 0,-13.31618 0,-24.4159 0,-38 0,-1.108 -0.892,-2 -2,-2 z" clip-rule="nonzero" color="#000" color-interpolation="sRGB" color-interpolation-filters="linearRGB" color-rendering="auto" display="inline" enable-background="accumulate" image-rendering="auto" opacity="1" overflow="visible" shape-rendering="auto" text-rendering="auto" visibility="visible" style="isolation:auto;mix-blend-mode:normal;solid-color:#000;solid-opacity:1"/><path id="rect4508" fill="#0caaf0" fill-opacity=".6" fill-rule="nonzero" stroke="none" stroke-dasharray="none" stroke-dashoffset="0" stroke-linecap="butt" stroke-linejoin="miter" stroke-miterlimit="4" stroke-opacity="1" stroke-width="1" d="m 61,207 c -2.216,0 -4,1.784 -4,4 l 0,28 c 0,2.216 1.784,4 4,4 l 28,0 c 2.216,0 4,-1.784 4,-4 l 0,-28 c 0,-2.216 -1.784,-4 -4,-4 l -28,0 z M 86.171876,214.17188 89,217 71,235 61,225 63.828124,222.17188 71,229.34376 86.171876,214.17188 Z" clip-rule="nonzero" color="#000" color-interpolation="sRGB" color-interpolation-filters="linearRGB" color-rendering="auto" display="inline" enable-background="accumulate" image-rendering="auto" opacity="1" overflow="visible" shape-rendering="auto" text-rendering="auto" visibility="visible" style="isolation:auto;mix-blend-mode:normal;solid-color:#000;solid-opacity:1"/></g><g id="checkbox-selectionmode-dark"><path id="path4413" fill="#555" fill-opacity="0" fill-rule="nonzero" stroke="none" stroke-dasharray="none" stroke-dashoffset="0" stroke-linecap="butt" stroke-linejoin="miter" stroke-miterlimit="4" stroke-opacity="1" stroke-width=".5" d="m 107,205 c -1.108,0 -2,0.892 -2,2 0,13.55272 0,26.10215 0,38 13.83277,0 28.11944,0 40,0 0,-13.31618 0,-24.4159 0,-38 0,-1.108 -0.892,-2 -2,-2 z" clip-rule="nonzero" color="#000" color-interpolation="sRGB" color-interpolation-filters="linearRGB" color-rendering="auto" display="inline" enable-background="accumulate" image-rendering="auto" opacity="1" overflow="visible" shape-rendering="auto" text-rendering="auto" visibility="visible" style="isolation:auto;mix-blend-mode:normal;solid-color:#000;solid-opacity:1;filter-blend-mode:normal;filter-gaussianBlur-deviation:0"/><path id="path4564" fill="#fff" fill-opacity=".941" fill-rule="nonzero" stroke="none" stroke-dasharray="none" stroke-dashoffset="0" stroke-linecap="butt" stroke-linejoin="miter" stroke-miterlimit="4" stroke-opacity="1" stroke-width="1" d="m 111,207 c -2.216,0 -4,1.784 -4,4 l 0,28 c 0,2.216 1.784,4 4,4 l 28,0 c 2.216,0 4,-1.784 4,-4 l 0,-28 c 0,-2.216 -1.784,-4 -4,-4 l -28,0 z m 0,4 28,0 0,28 -28,0 0,-28 z" clip-rule="nonzero" color="#000" color-interpolation="sRGB" color-interpolation-filters="linearRGB" color-rendering="auto" display="inline" enable-background="accumulate" image-rendering="auto" opacity="1" overflow="visible" shape-rendering="auto" text-rendering="auto" visibility="visible" style="isolation:auto;mix-blend-mode:normal;solid-color:#000;solid-opacity:1"/></g><g id="checkbox-checked-selectionmode-dark"><path id="path4429" fill="#555" fill-opacity="0" fill-rule="nonzero" stroke="none" stroke-dasharray="none" stroke-dashoffset="0" stroke-linecap="butt" stroke-linejoin="miter" stroke-miterlimit="4" stroke-opacity="1" stroke-width=".5" d="m 157,205 c -1.108,0 -2,0.892 -2,2 0,13.55272 0,26.10215 0,38 13.83277,0 28.11944,0 40,0 0,-13.31618 0,-24.4159 0,-38 0,-1.108 -0.892,-2 -2,-2 z" clip-rule="nonzero" color="#000" color-interpolation="sRGB" color-interpolation-filters="linearRGB" color-rendering="auto" display="inline" enable-background="accumulate" image-rendering="auto" opacity="1" overflow="visible" shape-rendering="auto" text-rendering="auto" visibility="visible" style="isolation:auto;mix-blend-mode:normal;solid-color:#000;solid-opacity:1"/><path id="path4570" fill="#fff" fill-opacity=".941" fill-rule="nonzero" stroke="none" stroke-dasharray="none" stroke-dashoffset="0" stroke-linecap="butt" stroke-linejoin="miter" stroke-miterlimit="4" stroke-opacity="1" stroke-width="1" d="m 161,207 c -2.216,0 -4,1.784 -4,4 l 0,28 c 0,2.216 1.784,4 4,4 l 28,0 c 2.216,0 4,-1.784 4,-4 l 0,-28 c 0,-2.216 -1.784,-4 -4,-4 l -28,0 z m 25.17188,7.17188 L 189,217 l -18,18 -10,-10 2.82812,-2.82812 7.17188,7.17188 15.17188,-15.17188 z" clip-rule="nonzero" color="#000" color-interpolation="sRGB" color-interpolation-filters="linearRGB" color-rendering="auto" display="inline" enable-background="accumulate" image-rendering="auto" opacity="1" overflow="visible" shape-rendering="auto" text-rendering="auto" visibility="visible" style="isolation:auto;mix-blend-mode:normal;solid-color:#000;solid-opacity:1"/></g><g id="checkbox-hover-selectionmode"><path id="path4431" fill="#f5f5f5" fill-opacity="0" fill-rule="nonzero" stroke="none" stroke-dasharray="none" stroke-dashoffset="0" stroke-linecap="butt" stroke-linejoin="miter" stroke-miterlimit="4" stroke-opacity="1" stroke-width=".5" d="m 7,255 c -1.108,0 -2,0.892 -2,2 0,13.55272 0,26.10215 0,38 13.832775,0 28.119439,0 40,0 0,-13.31618 0,-24.4159 0,-38 0,-1.108 -0.892,-2 -2,-2 z" clip-rule="nonzero" color="#000" color-interpolation="sRGB" color-interpolation-filters="linearRGB" color-rendering="auto" display="inline" enable-background="accumulate" image-rendering="auto" opacity="1" overflow="visible" shape-rendering="auto" text-rendering="auto" visibility="visible" style="isolation:auto;mix-blend-mode:normal;solid-color:#000;solid-opacity:1"/><path id="path4463" fill="#000" fill-opacity="0" fill-rule="nonzero" stroke="none" stroke-dasharray="none" stroke-dashoffset="0" stroke-linecap="butt" stroke-linejoin="miter" stroke-miterlimit="4" stroke-opacity="1" stroke-width=".5" d="m 7,255 c -1.108,0 -2,0.892 -2,2 0,13.55272 0,26.10215 0,38 13.832775,0 28.119439,0 40,0 0,-13.31618 0,-24.4159 0,-38 0,-1.108 -0.892,-2 -2,-2 z" clip-rule="nonzero" color="#000" color-interpolation="sRGB" color-interpolation-filters="linearRGB" color-rendering="auto" display="inline" enable-background="accumulate" image-rendering="auto" opacity="1" overflow="visible" shape-rendering="auto" text-rendering="auto" visibility="visible" style="isolation:auto;mix-blend-mode:normal;solid-color:#000;solid-opacity:1"/><path id="path4433" fill="#000" fill-opacity=".8" fill-rule="nonzero" stroke="none" stroke-dasharray="none" stroke-dashoffset="0" stroke-linecap="butt" stroke-linejoin="miter" stroke-miterlimit="4" stroke-opacity="1" stroke-width="1" d="m 11,257 c -2.216,0 -4,1.784 -4,4 l 0,28 c 0,2.216 1.784,4 4,4 l 28,0 c 2.216,0 4,-1.784 4,-4 l 0,-28 c 0,-2.216 -1.784,-4 -4,-4 l -28,0 z m 0,4 28,0 0,28 -28,0 0,-28 z" clip-rule="nonzero" color="#000" color-interpolation="sRGB" color-interpolation-filters="linearRGB" color-rendering="auto" display="inline" enable-background="accumulate" image-rendering="auto" opacity="1" overflow="visible" shape-rendering="auto" text-rendering="auto" visibility="visible" style="isolation:auto;mix-blend-mode:normal;solid-color:#000;solid-opacity:1"/></g><g id="checkbox-checked-hover-selectionmode"><path id="path4435" fill="#f5f5f5" fill-opacity="0" fill-rule="nonzero" stroke="none" stroke-dasharray="none" stroke-dashoffset="0" stroke-linecap="butt" stroke-linejoin="miter" stroke-miterlimit="4" stroke-opacity="1" stroke-width=".5" d="m 57,255 c -1.108,0 -2,0.892 -2,2 0,13.55272 0,26.10215 0,38 13.832775,0 28.119439,0 40,0 0,-13.31618 0,-24.4159 0,-38 0,-1.108 -0.892,-2 -2,-2 z" clip-rule="nonzero" color="#000" color-interpolation="sRGB" color-interpolation-filters="linearRGB" color-rendering="auto" display="inline" enable-background="accumulate" image-rendering="auto" opacity="1" overflow="visible" shape-rendering="auto" text-rendering="auto" visibility="visible" style="isolation:auto;mix-blend-mode:normal;solid-color:#000;solid-opacity:1"/><path id="path4467" fill="#000" fill-opacity="0" fill-rule="nonzero" stroke="none" stroke-dasharray="none" stroke-dashoffset="0" stroke-linecap="butt" stroke-linejoin="miter" stroke-miterlimit="4" stroke-opacity="1" stroke-width=".5" d="m 57,255 c -1.108,0 -2,0.892 -2,2 0,13.55272 0,26.10215 0,38 13.832775,0 28.119439,0 40,0 0,-13.31618 0,-24.4159 0,-38 0,-1.108 -0.892,-2 -2,-2 z" clip-rule="nonzero" color="#000" color-interpolation="sRGB" color-interpolation-filters="linearRGB" color-rendering="auto" display="inline" enable-background="accumulate" image-rendering="auto" opacity="1" overflow="visible" shape-rendering="auto" text-rendering="auto" visibility="visible" style="isolation:auto;mix-blend-mode:normal;solid-color:#000;solid-opacity:1"/><path id="path4437" fill="#0caaf0" fill-opacity="1" fill-rule="nonzero" stroke="none" stroke-dasharray="none" stroke-dashoffset="0" stroke-linecap="butt" stroke-linejoin="miter" stroke-miterlimit="4" stroke-opacity="1" stroke-width="1" d="m 61,257 c -2.216,0 -4,1.784 -4,4 l 0,28 c 0,2.216 1.784,4 4,4 l 28,0 c 2.216,0 4,-1.784 4,-4 l 0,-28 c 0,-2.216 -1.784,-4 -4,-4 l -28,0 z M 86.171876,264.17188 89,267 71,285 61,275 63.828124,272.17188 71,279.34376 86.171876,264.17188 Z" clip-rule="nonzero" color="#000" color-interpolation="sRGB" color-interpolation-filters="linearRGB" color-rendering="auto" display="inline" enable-background="accumulate" image-rendering="auto" opacity="1" overflow="visible" shape-rendering="auto" text-rendering="auto" visibility="visible" style="isolation:auto;mix-blend-mode:normal;solid-color:#000;solid-opacity:1"/></g><g id="checkbox-hover-selectionmode-dark"><path id="path4439" fill="#455a64" fill-opacity="0" fill-rule="nonzero" stroke="none" stroke-dasharray="none" stroke-dashoffset="0" stroke-linecap="butt" stroke-linejoin="miter" stroke-miterlimit="4" stroke-opacity="1" stroke-width=".5" d="m 107,255 c -1.108,0 -2,0.892 -2,2 0,13.55272 0,26.10215 0,38 13.83277,0 28.11944,0 40,0 0,-13.31618 0,-24.4159 0,-38 0,-1.108 -0.892,-2 -2,-2 z" clip-rule="nonzero" color="#000" color-interpolation="sRGB" color-interpolation-filters="linearRGB" color-rendering="auto" display="inline" enable-background="accumulate" image-rendering="auto" opacity="1" overflow="visible" shape-rendering="auto" text-rendering="auto" visibility="visible" style="isolation:auto;mix-blend-mode:normal;solid-color:#000;solid-opacity:1"/><path id="path4465" fill="#555" fill-opacity="0" fill-rule="nonzero" stroke="none" stroke-dasharray="none" stroke-dashoffset="0" stroke-linecap="butt" stroke-linejoin="miter" stroke-miterlimit="4" stroke-opacity="1" stroke-width=".5" d="m 107,255 c -1.108,0 -2,0.892 -2,2 0,13.55272 0,26.10215 0,38 13.83277,0 28.11944,0 40,0 0,-13.31618 0,-24.4159 0,-38 0,-1.108 -0.892,-2 -2,-2 z" clip-rule="nonzero" color="#000" color-interpolation="sRGB" color-interpolation-filters="linearRGB" color-rendering="auto" display="inline" enable-background="accumulate" image-rendering="auto" opacity="1" overflow="visible" shape-rendering="auto" text-rendering="auto" visibility="visible" style="isolation:auto;mix-blend-mode:normal;solid-color:#000;solid-opacity:1"/><path id="path4441" fill="#fff" fill-opacity="1" fill-rule="nonzero" stroke="none" stroke-dasharray="none" stroke-dashoffset="0" stroke-linecap="butt" stroke-linejoin="miter" stroke-miterlimit="4" stroke-opacity="1" stroke-width="1" d="m 111,257 c -2.216,0 -4,1.784 -4,4 l 0,28 c 0,2.216 1.784,4 4,4 l 28,0 c 2.216,0 4,-1.784 4,-4 l 0,-28 c 0,-2.216 -1.784,-4 -4,-4 l -28,0 z m 0,4 28,0 0,28 -28,0 0,-28 z" clip-rule="nonzero" color="#000" color-interpolation="sRGB" color-interpolation-filters="linearRGB" color-rendering="auto" display="inline" enable-background="accumulate" image-rendering="auto" opacity="1" overflow="visible" shape-rendering="auto" text-rendering="auto" visibility="visible" style="isolation:auto;mix-blend-mode:normal;solid-color:#000;solid-opacity:1"/></g><g id="checkbox-checked-hover-selectionmode-dark"><path id="path4443" fill="#455a64" fill-opacity="0" fill-rule="nonzero" stroke="none" stroke-dasharray="none" stroke-dashoffset="0" stroke-linecap="butt" stroke-linejoin="miter" stroke-miterlimit="4" stroke-opacity="1" stroke-width=".5" d="m 157,255 c -1.108,0 -2,0.892 -2,2 0,13.55272 0,26.10215 0,38 13.83277,0 28.11944,0 40,0 0,-13.31618 0,-24.4159 0,-38 0,-1.108 -0.892,-2 -2,-2 z" clip-rule="nonzero" color="#000" color-interpolation="sRGB" color-interpolation-filters="linearRGB" color-rendering="auto" display="inline" enable-background="accumulate" image-rendering="auto" opacity="1" overflow="visible" shape-rendering="auto" text-rendering="auto" visibility="visible" style="isolation:auto;mix-blend-mode:normal;solid-color:#000;solid-opacity:1"/><path id="path4469" fill="#555" fill-opacity="0" fill-rule="nonzero" stroke="none" stroke-dasharray="none" stroke-dashoffset="0" stroke-linecap="butt" stroke-linejoin="miter" stroke-miterlimit="4" stroke-opacity="1" stroke-width=".5" d="m 157,255 c -1.108,0 -2,0.892 -2,2 0,13.55272 0,26.10215 0,38 13.83277,0 28.11944,0 40,0 0,-13.31618 0,-24.4159 0,-38 0,-1.108 -0.892,-2 -2,-2 z" clip-rule="nonzero" color="#000" color-interpolation="sRGB" color-interpolation-filters="linearRGB" color-rendering="auto" display="inline" enable-background="accumulate" image-rendering="auto" opacity="1" overflow="visible" shape-rendering="auto" text-rendering="auto" visibility="visible" style="isolation:auto;mix-blend-mode:normal;solid-color:#000;solid-opacity:1"/><path id="path4445" fill="#fff" fill-opacity="1" fill-rule="nonzero" stroke="none" stroke-dasharray="none" stroke-dashoffset="0" stroke-linecap="butt" stroke-linejoin="miter" stroke-miterlimit="4" stroke-opacity="1" stroke-width="1" d="m 161,257 c -2.216,0 -4,1.784 -4,4 l 0,28 c 0,2.216 1.784,4 4,4 l 28,0 c 2.216,0 4,-1.784 4,-4 l 0,-28 c 0,-2.216 -1.784,-4 -4,-4 l -28,0 z m 25.17188,7.17188 L 189,267 l -18,18 -10,-10 2.82812,-2.82812 7.17188,7.17188 15.17188,-15.17188 z" clip-rule="nonzero" color="#000" color-interpolation="sRGB" color-interpolation-filters="linearRGB" color-rendering="auto" display="inline" enable-background="accumulate" image-rendering="auto" opacity="1" overflow="visible" shape-rendering="auto" text-rendering="auto" visibility="visible" style="isolation:auto;mix-blend-mode:normal;solid-color:#000;solid-opacity:1"/></g></g></svg>